PathFileType  4	(X/Y/Z) W:\OA_GaitRetraining\ACL OpenCap study\PS1\Edited\
DataRate	CameraRate	NumFrames	NumMarkers	Units	OrigDataRate	OrigDataStartFrame	OrigNumFrames
  200.0		  200.0		    8		     46		 mm	  200.0	      74	    147
Frame#	Time	C7			R_Shoulder			L_Shoulder			Sternum			R_humerus			R_elbow_med			R_elbow_lat			R_forearm			R_wrist_radius			R_wrist_ulna			L_humerus			L_elbow_med			L_elbow_lat			L_forearm			L_wrist_radius			L_wrist_ulna			r.ASIS			r.PSIS			L.ASIS			L.PSIS			r_thigh1			r_thigh2			r_thigh3			r_thigh4			r_thigh5			r_knee			r_shank_antsup			r_sh2			r_sh3			r_sh4			r_ankle			r_calc			r_5meta			r_toe			L_thigh1			L_thigh2			L_thigh3			L_thigh4			L_knee			L_shank_antsup			L_sh2			L_sh3			L_ankle			L_calc			L_5meta			L_toe			
		X1	Y1	Z1	X2	Y2	Z2	X3	Y3	Z3	X4	Y4	Z4	X5	Y5	Z5	X6	Y6	Z6	X7	Y7	Z7	X8	Y8	Z8	X9	Y9	Z9	X10	Y10	Z10	X11	Y11	Z11	X12	Y12	Z12	X13	Y13	Z13	X14	Y14	Z14	X15	Y15	Z15	X16	Y16	Z16	X17	Y17	Z17	X18	Y18	Z18	X19	Y19	Z19	X20	Y20	Z20	X21	Y21	Z21	X22	Y22	Z22	X23	Y23	Z23	X24	Y24	Z24	X25	Y25	Z25	X26	Y26	Z26	X27	Y27	Z27	X28	Y28	Z28	X29	Y29	Z29	X30	Y30	Z30	X31	Y31	Z31	X32	Y32	Z32	X33	Y33	Z33	X34	Y34	Z34	X35	Y35	Z35	X36	Y36	Z36	X37	Y37	Z37	X38	Y38	Z38	X39	Y39	Z39	X40	Y40	Z40	X41	Y41	Z41	X42	Y42	Z42	X43	Y43	Z43	X44	Y44	Z44	X45	Y45	Z45	X46	Y46	Z46	

74	0.36500	-71.023	1159.265	-697.419	71.760	1094.531	-776.478	-207.772	1051.048	-772.062	-51.652	1029.441	-800.128	225.046	1019.502	-597.233	182.046	974.734	-479.128	257.774	978.597	-509.020	242.140	824.945	-555.821	230.503	744.758	-536.504	215.751	759.439	-582.744	-329.033	933.830	-697.899	-357.529	812.451	-566.273	-410.454	829.265	-606.862	-419.755	763.563	-671.026	-384.606	644.297	-744.076	-429.326	634.607	-711.455	134.398	687.829	-592.483	5.484	772.337	-436.302	-108.641	731.528	-661.458	-61.779	780.814	-448.859	155.990	602.746	-646.381	152.443	521.856	-738.068	181.658	474.992	-722.510	181.407	524.793	-574.331	172.076	447.292	-660.433	154.074	340.386	-781.468	116.244	250.344	-744.341	56.545	194.969	-657.401	136.363	302.895	-690.605	81.043	251.578	-600.860	-1.785	155.786	-503.754	-58.260	194.652	-442.298	-10.767	47.017	-536.693	-50.103	66.732	-604.867	-150.878	669.452	-734.485	-145.161	583.546	-842.058	-224.764	600.637	-671.947	-207.215	511.529	-778.932	-195.608	446.980	-911.143	-240.647	300.771	-968.741	-279.487	319.057	-887.982	-302.392	199.896	-881.898	-340.211	98.821	-912.814	-337.530	66.895	-839.115	-349.178	26.528	-1008.268	-282.682	59.678	-1034.704
75	0.37000	-68.897	1157.505	-711.764	74.797	1093.923	-787.458	-204.861	1046.715	-785.231	-47.946	1027.542	-811.163	226.284	1014.691	-608.694	183.852	973.133	-489.417	259.461	975.577	-518.903	245.707	820.128	-561.307	235.363	740.841	-539.134	220.683	753.735	-586.023	-325.059	926.565	-716.891	-356.872	796.768	-591.194	-408.267	815.972	-632.086	-415.727	752.932	-698.393	-379.106	637.613	-775.909	-423.763	626.971	-744.740	139.124	688.512	-602.103	9.141	773.945	-446.207	-106.326	730.394	-670.685	-57.757	781.299	-458.352	160.273	604.187	-654.456	157.454	523.826	-746.630	186.531	476.759	-731.012	184.562	525.890	-582.505	176.484	448.817	-669.099	159.468	342.056	-790.616	120.778	251.614	-755.145	58.666	195.562	-670.842	140.131	303.509	-698.804	82.560	251.221	-612.102	-2.440	154.567	-518.069	-60.777	192.766	-457.840	-10.269	46.257	-552.251	-48.016	66.660	-622.220	-150.065	666.664	-746.153	-146.422	579.046	-852.167	-221.816	598.366	-680.607	-205.593	507.483	-786.060	-197.486	443.841	-916.092	-243.090	297.733	-972.383	-279.165	316.502	-890.604	-302.212	197.640	-882.855	-340.682	98.387	-912.523	-337.574	66.353	-839.334	-349.332	25.905	-1008.060	-282.172	60.070	-1035.701
76	0.37500	-67.201	1155.870	-725.406	77.952	1093.581	-798.105	-201.671	1042.880	-798.420	-44.176	1025.851	-822.031	227.594	1009.898	-619.830	186.131	972.066	-499.566	261.386	972.743	-528.892	249.676	816.067	-566.522	240.843	737.749	-541.313	225.818	748.468	-588.853	-320.364	919.727	-735.981	-353.628	781.999	-617.046	-404.352	804.027	-657.455	-409.979	744.150	-726.343	-372.380	631.759	-807.678	-417.103	619.463	-777.351	143.295	689.837	-610.207	12.285	775.383	-454.937	-103.576	729.585	-679.852	-54.130	782.131	-467.610	164.850	605.831	-662.685	162.851	525.677	-755.059	191.854	478.642	-739.222	187.654	527.421	-590.528	181.024	450.465	-677.495	165.288	344.026	-799.696	125.849	253.332	-766.056	61.198	195.963	-683.882	143.759	305.244	-708.247	83.620	252.240	-624.122	-2.696	153.251	-532.768	-62.939	190.681	-473.769	-9.317	45.363	-568.215	-45.194	65.910	-637.923	-149.645	664.812	-756.792	-147.337	575.085	-860.775	-218.451	597.096	-687.811	-203.971	504.376	-792.134	-198.963	441.621	-921.527	-245.218	295.534	-975.757	-278.799	314.258	-892.970	-301.738	195.678	-883.789	-341.149	98.272	-912.735	-337.655	66.056	-839.167	-349.897	25.610	-1008.023	-284.791	58.822	-1032.889
77	0.38000	-66.784	1156.178	-737.138	81.087	1093.480	-808.416	-198.015	1039.554	-811.545	-40.359	1024.376	-832.748	228.151	1004.944	-629.971	189.013	971.612	-509.259	263.027	969.832	-538.690	253.941	813.123	-571.472	248.645	737.247	-543.797	231.063	743.901	-590.621	-315.199	913.408	-754.957	-347.846	768.680	-643.843	-398.267	792.652	-684.787	-402.415	737.017	-754.597	-364.499	627.200	-839.945	-409.044	612.819	-810.134	147.194	691.609	-618.275	15.259	777.357	-464.789	-101.068	729.412	-688.928	-50.702	783.461	-476.757	169.774	607.520	-670.816	168.195	527.731	-764.188	197.492	480.466	-747.168	191.109	529.002	-598.342	185.677	452.173	-685.599	171.405	346.230	-808.956	131.241	255.447	-776.764	64.955	197.205	-696.540	147.381	307.014	-718.614	85.086	253.503	-635.958	-2.443	151.971	-547.685	-64.547	188.434	-489.933	-6.930	44.995	-584.137	-41.628	65.474	-654.894	-149.612	664.547	-765.387	-146.908	573.633	-868.207	-215.552	596.362	-693.675	-202.318	503.144	-798.370	-199.648	438.668	-925.496	-246.343	294.420	-978.886	-278.165	313.827	-895.350	-301.335	194.903	-885.284	-341.288	97.851	-912.297	-337.845	66.034	-838.674	-350.184	25.233	-1007.873	-285.101	58.752	-1032.515
78	0.38500	-65.468	1154.503	-749.673	84.301	1093.561	-818.498	-193.626	1036.301	-824.182	-36.434	1023.191	-843.321	229.888	1001.344	-640.404	191.866	971.101	-518.506	265.647	967.973	-548.769	258.573	811.423	-576.249	253.320	734.839	-544.268	236.656	740.052	-592.002	-309.378	907.380	-774.282	-339.924	757.197	-670.729	-391.330	783.571	-711.677	-393.646	731.602	-783.878	-355.297	624.041	-872.331	-399.045	608.262	-843.874	149.551	692.824	-624.704	18.196	779.583	-474.049	-98.525	729.412	-697.878	-47.418	785.247	-485.812	175.016	609.168	-678.522	174.480	529.650	-772.196	203.508	481.213	-753.586	195.127	530.534	-605.966	190.363	453.834	-693.532	177.686	348.720	-818.218	136.981	258.160	-786.896	69.432	198.444	-708.662	151.061	308.870	-729.212	87.405	254.976	-648.136	-2.268	149.454	-562.729	-65.252	186.091	-506.413	-5.090	44.153	-601.632	-36.764	65.563	-673.065	-148.462	664.993	-772.434	-144.867	573.681	-874.646	-212.772	596.654	-699.316	-200.980	503.961	-804.205	-199.316	437.361	-931.117	-246.205	293.722	-981.882	-276.973	313.839	-898.159	-300.915	195.177	-886.952	-341.562	97.751	-912.251	-337.889	65.867	-838.522	-350.406	24.820	-1007.797	-285.463	58.582	-1032.374
79	0.39000	-63.199	1153.314	-762.077	87.519	1093.877	-828.258	-189.231	1033.842	-837.281	-32.394	1022.139	-853.869	232.552	999.139	-650.810	196.274	972.117	-527.833	268.620	966.637	-558.897	263.511	810.486	-580.712	260.222	734.340	-545.769	241.461	738.117	-593.633	-303.139	901.793	-793.710	-330.709	747.424	-696.995	-384.173	775.566	-736.748	-383.668	726.288	-812.307	-344.678	622.657	-904.627	-387.839	604.384	-876.827	152.891	695.349	-632.876	21.042	781.897	-483.013	-96.811	729.885	-706.470	-44.368	787.380	-494.626	180.111	610.715	-685.801	181.395	531.602	-779.532	209.706	482.937	-760.979	199.514	531.984	-613.562	195.183	455.581	-701.297	184.076	351.433	-827.644	143.621	261.398	-796.608	74.452	200.040	-721.480	155.577	311.850	-738.811	89.834	256.579	-660.133	-0.579	148.068	-578.355	-65.013	183.688	-523.045	-1.998	43.351	-618.735	-33.128	65.445	-689.669	-145.565	665.450	-779.038	-141.492	574.491	-880.801	-210.195	598.040	-704.764	-199.042	505.698	-810.376	-197.408	437.538	-936.497	-246.472	293.054	-985.585	-275.778	313.867	-901.332	-300.453	196.175	-888.557	-341.931	97.775	-912.487	-337.999	65.947	-838.441	-350.666	24.415	-1007.745	-285.996	58.480	-1032.412
80	0.39500	-60.974	1152.523	-773.698	90.748	1094.095	-837.861	-184.348	1031.948	-850.378	-28.149	1021.259	-864.265	236.038	998.367	-661.181	200.507	972.942	-536.839	271.903	965.947	-569.098	268.751	810.029	-584.948	267.502	734.749	-546.372	247.465	736.843	-594.171	-296.458	896.963	-813.364	-320.581	738.962	-723.253	-375.298	767.388	-761.970	-372.837	721.868	-840.093	-332.601	623.216	-936.459	-375.105	602.112	-909.412	156.019	697.773	-641.179	23.938	784.180	-492.224	-95.545	730.273	-714.719	-41.438	789.631	-503.248	185.377	612.364	-692.870	187.982	533.795	-787.686	215.953	484.718	-768.357	204.097	533.394	-620.999	200.114	457.359	-708.977	190.602	354.408	-837.173	150.298	264.631	-807.507	80.586	200.945	-733.238	160.258	314.269	-748.821	92.920	257.929	-672.373	1.910	146.821	-594.211	-63.447	181.642	-540.095	1.847	42.687	-636.266	-27.240	65.776	-708.118	-141.290	665.840	-784.579	-137.423	575.596	-886.903	-207.786	599.736	-710.389	-196.772	508.149	-816.623	-194.051	438.755	-940.846	-246.312	292.486	-988.563	-274.512	314.608	-904.332	-299.956	197.460	-890.135	-342.399	97.988	-912.857	-338.083	66.263	-838.419	-350.900	23.833	-1007.781	-286.620	58.421	-1032.416
81	0.40000	-57.715	1151.078	-785.378	94.276	1094.811	-848.232	-179.020	1030.444	-863.281	-23.769	1020.464	-874.402	239.877	998.941	-671.222	204.471	973.466	-545.432	275.354	965.841	-579.241	274.188	809.916	-588.679	275.172	735.901	-547.119	253.742	734.868	-594.392	-289.323	892.896	-832.872	-310.248	731.328	-748.129	-365.430	759.219	-786.772	-361.366	718.478	-867.164	-318.991	625.505	-967.742	-360.945	601.576	-941.381	160.257	700.814	-650.909	26.975	786.341	-501.513	-94.416	730.929	-723.218	-38.460	792.497	-512.288	191.194	616.993	-702.654	195.140	536.093	-795.108	222.297	486.675	-775.636	208.676	534.757	-628.207	205.163	459.205	-716.682	196.686	357.971	-846.460	157.127	268.430	-818.232	86.494	202.835	-746.601	165.125	317.514	-759.010	96.698	259.235	-684.860	5.243	145.550	-610.368	-61.276	179.067	-557.085	6.538	42.160	-654.088	-21.220	66.283	-726.089	-135.509	666.228	-790.220	-133.109	576.899	-892.980	-204.893	602.077	-716.528	-194.351	510.828	-822.897	-191.029	440.170	-945.386	-245.667	292.214	-991.281	-273.058	316.586	-908.135	-299.392	198.806	-891.912	-342.913	98.265	-913.291	-337.921	66.764	-838.271	-351.154	23.264	-1007.739	-287.172	58.232	-1032.509
